<svg width="52" height="51" viewBox="0 0 52 51" fill="none" xmlns="http://www.w3.org/2000/svg">
<g filter="url(#filter0_d_1_3)">
<path fill-rule="evenodd" clip-rule="evenodd" d="M2 0C0.895431 0 0 0.895432 0 2V48C0 49.1046 0.895432 50 2 50H29.6V30.55H26.15V26.3H29.6V23.4C29.6 21.0333 30.25 19.1333 31.55 17.7C32.8833 16.2333 34.85 15.5 37.45 15.5C38.4167 15.5 39.3 15.5833 40.1 15.75C40.9 15.8833 41.6333 16.0833 42.3 16.35V20.25C41.2667 19.8833 40.2167 19.7 39.15 19.7C37.5833 19.7 36.5 19.9833 35.9 20.55C35.3 21.1167 35 22.0833 35 23.45V26.3H41.2L40.95 30.55H35V50H48C49.1046 50 50 49.1046 50 48V2C50 0.895431 49.1046 0 48 0H2Z" fill="#3B5998"/>
</g>
<defs>
<filter id="filter0_d_1_3" x="0" y="0" width="52" height="51" filterUnits="userSpaceOnUse" color-interpolation-filters="sRGB">
<feFlood flood-opacity="0" result="BackgroundImageFix"/>
<feColorMatrix in="SourceAlpha" type="matrix" values="0 0 0 0 0 0 0 0 0 0 0 0 0 0 0 0 0 0 127 0" result="hardAlpha"/>
<feOffset dx="2" dy="1"/>
<feComposite in2="hardAlpha" operator="out"/>
<feColorMatrix type="matrix" values="0 0 0 0 0 0 0 0 0 0 0 0 0 0 0 0 0 0 0.35 0"/>
<feBlend mode="normal" in2="BackgroundImageFix" result="effect1_dropShadow_1_3"/>
<feBlend mode="normal" in="SourceGraphic" in2="effect1_dropShadow_1_3" result="shape"/>
</filter>
</defs>
</svg>
